<?xml version="1.0" encoding="UTF-8"?>
<svg id="Layer_1" data-name="Layer 1" xmlns="http://www.w3.org/2000/svg" viewBox="0 0 200 200">
  <defs>
    <style>
      .cls-1 {
        fill: #414042;
        fill-rule: evenodd;
      }
    </style>
  </defs>
  <path class="cls-1" d="m122.62,121.92h-18.09v17.53h18.09v-17.53Zm0-30.69h-18.09v17.54h18.09v-17.54Zm0,61.37h-18.09v17.54h18.09v-17.54Zm27.13-61.37h-18.09v17.54h18.09v-17.54Zm27.13,0h-18.09v17.54h18.09v-17.54Zm-27.13,30.69h-18.09v17.53h18.09v-17.53Zm27.13,0h-18.09v17.53h18.09v-17.53Zm-81.41,0h-18.09v17.53h18.09v-17.53Zm0-30.69h-18.09v17.54h18.09v-17.54Zm0,61.37h-18.09v17.54h18.09v-17.54Zm-54.27-30.68h-18.09v17.53h18.09v-17.53Zm0-30.69h-18.09v17.54h18.09v-17.54ZM181.41,21.1h-18.09V7.94c0-2.41-2.03-4.38-4.52-4.38s-4.52,1.97-4.52,4.38v13.15H45.73V7.94c0-2.41-2.02-4.38-4.52-4.38s-4.52,1.97-4.52,4.38v13.15h-18.09C8.6,21.1.5,28.95.5,38.64v140.27c0,9.69,8.1,17.54,18.09,17.54h162.81c10,0,18.09-7.85,18.09-17.54V38.64c0-9.69-8.1-17.54-18.09-17.54m9.05,157.8c0,4.84-4.05,8.77-9.05,8.77H18.59c-4.99,0-9.05-3.93-9.05-8.77v-105.2h180.91v105.2Zm0-113.97H9.55v-26.3c0-4.84,4.05-8.78,9.05-8.78h18.09v13.15c0,2.43,2.03,4.38,4.52,4.38s4.52-1.96,4.52-4.38v-13.15h108.55v13.15c0,2.43,2.02,4.38,4.52,4.38s4.52-1.96,4.52-4.38v-13.15h18.09c4.99,0,9.05,3.94,9.05,8.78v26.3ZM41.2,152.6h-18.09v17.54h18.09v-17.54Zm27.14-61.37h-18.09v17.54h18.09v-17.54Zm0,61.37h-18.09v17.54h18.09v-17.54Zm0-30.68h-18.09v17.53h18.09v-17.53Z"/>
</svg>