<?xml version="1.0" encoding="UTF-8"?><svg id="Layer_1" xmlns="http://www.w3.org/2000/svg" viewBox="0 0 94.994624238224787 94.994624238224787"><defs><style>.cls-1{fill:#d8cce5;}.cls-2{fill:#472868;}.cls-3{fill:#683894;}.cls-4{fill:#fff;}.cls-5{fill:#9e7bc6;}</style></defs><circle class="cls-3" cx="47.497312119112394" cy="47.497312119112394" r="47.497312119112394"/><polygon class="cls-5" points="60.876746032565279 21.157335621473976 25.398088679186912 21.157335621473976 25.398088679186912 73.837288616750811 69.596526612516755 73.837288616750811 69.596526612516755 29.877116201421813 60.876746032565279 21.157335621473976"/><polygon class="cls-2" points="60.876763964639395 21.157337530203222 60.876766680295987 29.8771173891746 69.596535559037875 29.877117006950357 60.876763964639395 21.157337530203222"/><path class="cls-4" d="M28.459157789817255,63.825511544504479h1.1435546875l1.1611328125,4.9140625h.017578125l1.2958984375-4.9140625h1.15234375l1.259765625,4.9140625h.017578125l1.197265625-4.9140625h1.1435546875l-1.7734375,6.42578125h-1.142578125l-1.287109375-4.9140625h-.0185546875l-1.3134765625,4.9140625h-1.1611328125l-1.6923828125-6.42578125Z"/><path class="cls-4" d="M41.401540602317255,63.672191232004479c.48046875,0,.91015625.0908203125,1.2919921875.2705078125.380859375.1796875.703125.4228515625.966796875.728515625.2646484375.306640625.466796875.6630859375.607421875,1.0712890625.1416015625.408203125.2119140625.83984375.2119140625,1.2958984375,0,.4619140625-.0703125.8974609375-.2119140625,1.3046875-.140625.408203125-.3427734375.765625-.607421875,1.0712890625-.263671875.306640625-.5859375.5478515625-.966796875.724609375-.3818359375.1767578125-.8115234375.265625-1.2919921875.265625s-.91015625-.0888671875-1.291015625-.265625c-.3818359375-.1767578125-.7041015625-.41796875-.9677734375-.724609375-.2646484375-.3056640625-.466796875-.6630859375-.607421875-1.0712890625-.1416015625-.4072265625-.2119140625-.8427734375-.2119140625-1.3046875,0-.4560546875.0703125-.8876953125.2119140625-1.2958984375.140625-.408203125.3427734375-.7646484375.607421875-1.0712890625.263671875-.3056640625.5859375-.548828125.9677734375-.728515625.380859375-.1796875.810546875-.2705078125,1.291015625-.2705078125ZM41.401540602317255,64.590159982004479c-.341796875,0-.6376953125.0693359375-.88671875.20703125-.2490234375.138671875-.451171875.3232421875-.607421875.5537109375-.15625.2314453125-.271484375.494140625-.3466796875.7880859375-.07421875.2939453125-.1123046875.59375-.1123046875.8994140625s.0380859375.6064453125.1123046875.900390625c.0751953125.2939453125.1904296875.556640625.3466796875.787109375.15625.2314453125.3583984375.416015625.607421875.5537109375s.544921875.20703125.88671875.20703125.6376953125-.0693359375.88671875-.20703125.451171875-.322265625.607421875-.5537109375c.15625-.23046875.271484375-.4931640625.3466796875-.787109375s.1123046875-.5947265625.1123046875-.900390625-.037109375-.60546875-.1123046875-.8994140625-.1904296875-.556640625-.3466796875-.7880859375c-.15625-.23046875-.3583984375-.4150390625-.607421875-.5537109375-.2490234375-.1376953125-.544921875-.20703125-.88671875-.20703125Z"/><path class="cls-4" d="M46.585622633567255,63.825511544504479h3.0693359375c.7080078125,0,1.2392578125.1533203125,1.5927734375.458984375.3544921875.3056640625.53125.732421875.53125,1.2783203125,0,.3056640625-.044921875.5595703125-.134765625.759765625-.08984375.201171875-.1953125.36328125-.3154296875.486328125s-.23828125.2119140625-.35546875.265625-.2021484375.08984375-.255859375.1083984375v.017578125c.095703125.01171875.19921875.0419921875.310546875.08984375.1103515625.0478515625.2138671875.125.3095703125.2294921875.0966796875.10546875.17578125.2421875.2392578125.41015625.0625.16796875.09375.3779296875.09375.6298828125,0,.3779296875.029296875.7216796875.0859375,1.0302734375s.1455078125.529296875.265625.6611328125h-1.2060546875c-.083984375-.1376953125-.1337890625-.291015625-.1484375-.458984375-.015625-.16796875-.0224609375-.330078125-.0224609375-.4853515625,0-.2939453125-.0185546875-.5478515625-.0537109375-.7607421875-.0361328125-.212890625-.1025390625-.3896484375-.1982421875-.53125-.0966796875-.140625-.2265625-.244140625-.3916015625-.310546875-.1650390625-.0654296875-.376953125-.0986328125-.634765625-.0986328125h-1.65625v2.6455078125h-1.125v-6.42578125ZM47.710622633567255,66.750316232004479h1.845703125c.359375,0,.6328125-.0849609375.818359375-.255859375.1865234375-.171875.279296875-.427734375.279296875-.76953125,0-.2041015625-.0302734375-.37109375-.08984375-.5-.060546875-.12890625-.142578125-.2294921875-.248046875-.3017578125-.1044921875-.0712890625-.224609375-.119140625-.359375-.1435546875s-.2744140625-.0361328125-.4189453125-.0361328125h-1.8271484375v2.0068359375Z"/><path class="cls-4" d="M54.001638258567255,63.825511544504479h2.6640625c.4921875,0,.91796875.083984375,1.2783203125.251953125s.654296875.3974609375.8818359375.6884765625c.228515625.291015625.3974609375.6318359375.5087890625,1.021484375.111328125.390625.166015625.8076171875.166015625,1.2509765625,0,.4443359375-.0546875.861328125-.166015625,1.2509765625-.111328125.390625-.2802734375.73046875-.5087890625,1.021484375-.2275390625.291015625-.521484375.5205078125-.8818359375.6884765625s-.7861328125.251953125-1.2783203125.251953125h-2.6640625v-6.42578125ZM55.126638258567255,69.333324044504479h1.107421875c.4375,0,.796875-.05859375,1.0751953125-.1748046875.279296875-.1171875.498046875-.279296875.6572265625-.486328125s.2666015625-.4501953125.32421875-.7294921875c.056640625-.2783203125.0849609375-.580078125.0849609375-.904296875s-.0283203125-.625-.0849609375-.904296875c-.0576171875-.279296875-.1650390625-.5224609375-.32421875-.7294921875s-.3779296875-.3681640625-.6572265625-.4853515625c-.2783203125-.1171875-.6376953125-.17578125-1.0751953125-.17578125h-1.107421875v4.58984375Z"/><rect class="cls-1" x="29.089177931418817" y="26.338410304981153" width="24.909193580937426" height="3.538707084193447"/><rect class="cls-4" x="29.089176103465434" y="36.464704522210013" width="33.928236414987623" height="1.769354024203494"/><rect class="cls-4" x="29.089176103465434" y="40.46470212980239" width="30.924773693101088" height="1.769354024207132"/><rect class="cls-4" x="29.089176103465434" y="44.464704565993088" width="33.928236414987623" height="1.769354024203494"/><rect class="cls-4" x="29.089176103465434" y="48.464702173587284" width="29.44668312835347" height="1.769354024203494"/></svg>