<?xml version="1.0" encoding="UTF-8"?><svg id="Layer_1" xmlns="http://www.w3.org/2000/svg" viewBox="0 0 40.32663806529672 42.143403692071843"><defs><style>.cls-1{fill:#d1bee5;}.cls-2{fill:#683894;}.cls-3{fill:#fff;}</style></defs><circle class="cls-1" cx="20.16331903264836" cy="21.980084659423483" r="20.16331903264836"/><circle class="cls-2" cx="20.16331903264836" cy="21.980084659423028" r="17.883057102710382"/><path class="cls-3" d="M23.406934357464706,27.16564572167681h-6.487230649632693c-.385179319820963-1.28899921501943-1.192704385062825-2.396389759507656-1.995161301359985-3.494488697597262-.21117287270863-.288039798375394-.420656362435693-.576079596748968-.623382320238306-.868342852581009-.804146299276908-1.151314502010791-1.273794768181688-2.554347068292373-1.273794768181688-4.066344836891403,0-3.941330496249066,3.194623218349079-7.135953714597235,7.135953714598145-7.135953714597235,3.941330496247247,0,7.135953714594507,3.19462321834817,7.135953714594507,7.140177172050244,0,1.51199776859994-.469648468904779,2.910806877427603-1.273794768181688,4.066344836892313-.202725957802613.29226325583204-.412209447527857.580303054207434-.623382320238306.867498161092044-.799078150332207,1.098943629578571-1.60660321557225,2.202110716612879-1.995161301359985,3.495333389086227v-.004223457453918ZM20.163319032650179,15.49285400978988c.356459809132502,0,.648723064959995-.292263255829312.648723064959995-.648723064963633,0-.356459809132502-.292263255827493-.648723064962724-.648723064959995-.648723064962724-2.510423110770716,0-4.541061454745432,2.031483035465499-4.541061454745432,4.541061454743613,0,.356459809133412.292263255829312.648723064962724.648723064963633.648723064962724.356459809132502,0,.648723064963633-.292263255829312.648723064963633-.648723064962724,0-1.792435343558282,1.451179981258974-3.243615324817256,3.243615324818165-3.243615324817256ZM16.919703707832014,29.116038374019809v-.648723064961814h6.487230649632693v.648723064961814c0,1.792435343559191-1.451179981258974,3.243615324816346-3.243615324814527,3.243615324816346-1.792435343559191,0-3.243615324818165-1.451179981257155-3.243615324818165-3.243615324816346Z"/></svg>