<?xml version="1.0" encoding="UTF-8"?>
<svg id="Layer_1" data-name="Layer 1" xmlns="http://www.w3.org/2000/svg" viewBox="0 0 200 200">
  <defs>
    <style>
      .cls-1 {
        fill: #414042;
      }
    </style>
  </defs>
  <path class="cls-1" d="m100,.5C45.05.5.5,45.05.5,100s44.55,99.5,99.5,99.5,99.5-44.55,99.5-99.5S154.95.5,100,.5Zm59.94,79.57l-58.1,58.09-10.91,10.92c-1.5,1.5-3.32,2.24-5.46,2.24s-3.96-.75-5.46-2.24l-10.92-10.92-29.04-29.05c-1.5-1.5-2.25-3.31-2.25-5.45s.75-3.96,2.25-5.46l10.91-10.91c1.49-1.5,3.32-2.25,5.45-2.25s3.96.75,5.46,2.25l23.6,23.67,52.64-52.72c1.49-1.49,3.32-2.25,5.45-2.25s3.96.75,5.46,2.25l10.91,10.91c1.49,1.5,2.25,3.32,2.25,5.46s-.75,3.96-2.25,5.46Z"/>
</svg>