<svg xmlns="http://www.w3.org/2000/svg" data-name="Layer 1" viewBox="0 0 200 200"><path d="M122.62 121.92h-18.09v17.53h18.09zm0-30.69h-18.09v17.54h18.09zm0 61.37h-18.09v17.54h18.09zm27.13-61.37h-18.09v17.54h18.09zm27.13 0h-18.09v17.54h18.09zm-27.13 30.69h-18.09v17.53h18.09zm27.13 0h-18.09v17.53h18.09zm-81.41 0H77.38v17.53h18.09zm0-30.69H77.38v17.54h18.09zm0 61.37H77.38v17.54h18.09zM41.2 121.92H23.11v17.53H41.2zm0-30.69H23.11v17.54H41.2zM181.41 21.1h-18.09V7.94c0-2.41-2.03-4.38-4.52-4.38s-4.52 1.97-4.52 4.38v13.15H45.73V7.94c0-2.41-2.02-4.38-4.52-4.38s-4.52 1.97-4.52 4.38v13.15H18.6C8.6 21.1.5 28.95.5 38.64v140.27c0 9.69 8.1 17.54 18.09 17.54H181.4c10 0 18.09-7.85 18.09-17.54V38.64c0-9.69-8.1-17.54-18.09-17.54m9.05 157.8c0 4.84-4.05 8.77-9.05 8.77H18.59c-4.99 0-9.05-3.93-9.05-8.77V73.7h180.91zm0-113.97H9.55v-26.3c0-4.84 4.05-8.78 9.05-8.78h18.09V43c0 2.43 2.03 4.38 4.52 4.38s4.52-1.96 4.52-4.38V29.85h108.55V43c0 2.43 2.02 4.38 4.52 4.38s4.52-1.96 4.52-4.38V29.85h18.09c4.99 0 9.05 3.94 9.05 8.78v26.3ZM41.2 152.6H23.11v17.54H41.2zm27.14-61.37H50.25v17.54h18.09zm0 61.37H50.25v17.54h18.09zm0-30.68H50.25v17.53h18.09z" style="fill:#414042;fill-rule:evenodd"/></svg>